<?xml version="1.0" encoding="UTF-8" standalone="no"?>
<svg
   xmlns:dc="http://purl.org/dc/elements/1.1/"
   xmlns:cc="http://creativecommons.org/ns#"
   xmlns:rdf="http://www.w3.org/1999/02/22-rdf-syntax-ns#"
   xmlns:svg="http://www.w3.org/2000/svg"
   xmlns="http://www.w3.org/2000/svg"
   width="69.341286mm"
   height="22.159641mm"
   viewBox="0 0 69.341277 22.159641"
   version="1.1"
   id="svg8">
  <defs
     id="defs2" />
  <metadata
     id="metadata5">
    <rdf:RDF>
      <cc:Work
         rdf:about="">
        <dc:format>image/svg+xml</dc:format>
        <dc:type
           rdf:resource="http://purl.org/dc/dcmitype/StillImage" />
        <dc:title></dc:title>
      </cc:Work>
    </rdf:RDF>
  </metadata>
  <g
     style="fill:#ffffff"
     id="layer1"
     transform="translate(488.96112,-153.3803)">
    <path
       id="path4888"
       style="font-style:normal;font-variant:normal;font-weight:normal;font-stretch:normal;font-size:63.5px;line-height:1.25;font-family:olivier;-inkscape-font-specification:olivier;letter-spacing:0px;word-spacing:0px;fill:#ffffff;fill-opacity:1;stroke:none;stroke-width:0.1172567"
       d="m -485.07054,171.73801 q 0.11257,0.50655 0.19699,1.04124 0.0844,0.50654 -0.0563,1.04124 -0.22514,0.33769 -0.64726,0.42212 -0.42212,0.0844 -0.90053,0 -0.45027,-0.0844 -0.90053,-0.25327 -0.42213,-0.197 -0.6754,-0.36585 -0.47841,-1.37893 -0.6754,-2.87044 -0.19699,-1.49151 -0.22513,-2.98301 -0.0281,-1.49151 0.0563,-2.95487 0.0844,-1.46336 0.22513,-2.75788 0.0563,-0.95681 0.3377,-2.02619 0.30956,-1.06938 0.78797,-2.05434 0.4784,-1.0131 1.1538,-1.85735 0.6754,-0.84424 1.51965,-1.29451 0.87239,-0.47841 1.91363,-0.50655 1.04124,-0.0281 2.22319,0.59097 1.18194,0.61912 1.54779,1.57593 0.36584,0.95682 0.1407,2.08248 -0.19699,1.09753 -0.90053,2.25133 -0.70354,1.12567 -1.63221,2.08248 -0.90053,0.95682 -1.94177,1.60407 -1.0131,0.64726 -1.91363,0.75983 -0.0563,1.60407 0,3.23628 0.0563,1.63221 0.36584,3.23629 z m 3.96797,-15.53417 q -1.09753,-0.0281 -1.88549,0.56283 -0.75983,0.59097 -1.26637,1.43522 -0.50655,0.84425 -0.73169,1.80107 -0.22513,0.92867 -0.19699,1.54778 0.0563,-0.0281 0.45027,-0.25327 0.42212,-0.22513 0.98495,-0.56283 0.56284,-0.36584 1.15381,-0.84425 0.61912,-0.50655 1.04124,-1.06938 0.45027,-0.59098 0.61912,-1.23823 0.16884,-0.6754 -0.16885,-1.37894 z" />
    <path
       id="path4890"
       style="font-style:normal;font-variant:normal;font-weight:normal;font-stretch:normal;font-size:63.5px;line-height:1.25;font-family:olivier;-inkscape-font-specification:olivier;letter-spacing:0px;word-spacing:0px;fill:#ffffff;fill-opacity:1;stroke:none;stroke-width:0.1172567"
       d="m -471.74593,160.5095 q 0.11257,0.22514 -0.0281,0.36585 -0.14071,0.11256 -0.42212,0.25327 -0.25328,0.11257 -0.59098,0.30956 -0.3377,0.16885 -0.64725,0.50655 -0.30956,0.3377 -0.5347,0.87239 -0.19699,0.53469 -0.19699,1.35079 -0.0281,0.81611 0.36584,1.57593 0.42213,0.75983 1.0131,1.49151 0.59098,0.70354 1.29452,1.40708 0.70354,0.6754 1.26637,1.40708 0.56283,0.70354 0.87239,1.46336 0.3377,0.73169 0.22513,1.51965 -0.14071,0.78797 -0.90053,1.32266 -0.73168,0.56283 -1.80106,0.84424 -1.06938,0.30956 -2.30761,0.3377 -1.23824,0.0282 -2.33576,-0.22513 -1.06938,-0.22513 -1.85734,-0.73168 -0.78797,-0.50655 -0.98496,-1.29452 -0.30956,-1.1538 -0.16885,-1.94177 0.11257,-0.78796 0.45027,-1.29451 0.33769,-0.53469 0.75982,-0.81611 0.42212,-0.30955 0.73168,-0.4784 0.64726,-0.36585 0.84425,0 0.22513,0.36584 -0.25328,1.1538 -0.22513,0.39398 -0.11256,0.90053 0.11256,0.47841 0.50655,0.92868 0.42212,0.42212 1.04124,0.73168 0.64725,0.30956 1.46336,0.3377 0.50655,0.0281 1.0131,-0.0844 0.53469,-0.14071 0.87239,-0.39398 0.3377,-0.28142 0.39398,-0.64726 0.0844,-0.39398 -0.28142,-0.87239 -0.36584,-0.4784 -1.26637,-1.21009 -0.90053,-0.73168 -1.85734,-1.60407 -0.92868,-0.90053 -1.66036,-1.88549 -0.70354,-1.01309 -0.70354,-2.02619 0,-1.99806 0.70354,-2.92673 0.73168,-0.92867 2.33575,-1.21009 0.78797,-0.14071 1.29452,-0.11256 0.50655,0 0.78796,0.11256 0.30956,0.11257 0.45027,0.28142 0.14071,0.14071 0.22513,0.28141 z" />
    <path
       id="path4892"
       style="font-style:normal;font-variant:normal;font-weight:normal;font-stretch:normal;font-size:63.5px;line-height:1.25;font-family:olivier;-inkscape-font-specification:olivier;letter-spacing:0px;word-spacing:0px;fill:#ffffff;fill-opacity:1;stroke:none;stroke-width:0.1172567"
       d="m -469.16922,166.84137 q 0.0844,-0.6754 0.22514,-1.29452 0.14071,-0.61911 0.3377,-1.1538 0.22513,-0.53469 0.4784,-0.90054 0.25328,-0.39398 0.56284,-0.56283 0.30955,-0.14071 0.78796,-0.28141 0.50655,-0.16885 0.92867,-0.11257 0.45027,0.0281 0.6754,0.39398 0.22514,0.3377 -0.0281,1.21009 -0.11257,0.47841 -0.19699,1.21009 -0.0844,0.70354 -0.11257,1.54779 0,0.81611 0.0563,1.66035 0.0563,0.81611 0.19699,1.51965 0.16885,0.70354 0.42212,1.21009 0.28142,0.47841 0.6754,0.61912 0.81611,0.28141 1.40708,-0.0563 0.59097,-0.3377 1.09752,-1.04124 0.197,-0.30955 0.47841,-0.50655 0.28142,-0.22513 0.45027,-0.19699 0.19699,0.0281 0.19699,0.36584 0,0.3377 -0.36584,1.12567 -0.39399,0.81611 -1.0131,1.43522 -0.59097,0.61912 -1.3508,0.98496 -0.73168,0.3377 -1.57593,0.39398 -0.84425,0.0563 -1.68849,-0.25328 -0.84425,-0.28141 -1.37894,-0.78796 -0.53469,-0.53469 -0.84425,-1.40708 -0.28142,-0.87239 -0.39398,-2.11062 -0.0844,-1.26637 -0.0281,-3.01115 z m 1.26638,-10.04656 q 0.30955,-0.61911 0.92867,-0.75982 0.64726,-0.14071 1.23823,0.0281 0.61912,0.16885 1.04124,0.59097 0.45027,0.39399 0.36584,0.92868 -0.11257,0.64725 -0.73168,1.12566 -0.59097,0.45027 -1.80106,0.3377 -0.3377,-0.0281 -0.61912,-0.25327 -0.25327,-0.22514 -0.42212,-0.53469 -0.16885,-0.3377 -0.19699,-0.73169 0,-0.39398 0.19699,-0.73168 z" />
    <path
       id="path4894"
       style="font-style:normal;font-variant:normal;font-weight:normal;font-stretch:normal;font-size:63.5px;line-height:1.25;font-family:olivier;-inkscape-font-specification:olivier;letter-spacing:0px;word-spacing:0px;fill:#ffffff;fill-opacity:1;stroke:none;stroke-width:0.1172567"
       d="m -461.39158,163.46437 q 0.39399,-0.75982 1.04124,-1.32265 0.64726,-0.56283 1.40708,-0.90053 0.78797,-0.36584 1.63222,-0.53469 0.87239,-0.16885 1.68849,-0.16885 0.84425,0.0563 1.43523,0.56283 0.61911,0.47841 0.87239,1.26637 0.25327,0.75982 0.0844,1.71664 -0.14071,0.95681 -0.81611,1.94177 -0.73168,1.06938 -1.57593,1.60407 -0.8161,0.53469 -1.51964,0.75982 -0.81611,0.28142 -1.60407,0.25328 -0.0281,1.06938 0.22513,1.8292 0.11257,0.3377 0.25327,0.64726 0.16885,0.28142 0.42213,0.50655 0.25327,0.22513 0.61911,0.3377 0.36584,0.0844 0.84425,0 1.0131,-0.16885 1.63221,-0.73168 0.64726,-0.59098 1.06939,-1.18195 0.42212,-0.59097 0.67539,-1.0131 0.28142,-0.45026 0.53469,-0.3377 0.30956,0.14071 0.30956,0.70354 0.0281,0.56284 -0.25327,1.32266 -0.28142,0.75982 -0.84425,1.57593 -0.53469,0.78796 -1.37894,1.3508 -0.84425,0.56283 -1.94177,0.75982 -1.09752,0.22513 -2.44832,-0.19699 -1.09752,-0.3377 -1.8292,-1.06938 -0.73169,-0.73168 -1.15381,-1.6885 -0.42212,-0.95681 -0.56283,-2.05434 -0.14071,-1.09752 -0.0563,-2.1669 0.11257,-1.09752 0.42213,-2.08248 0.3377,-0.98496 0.8161,-1.6885 z m 2.61717,3.06744 q 0.36585,-0.0563 0.81611,-0.22513 0.39398,-0.14071 0.84425,-0.42213 0.47841,-0.28141 1.0131,-0.78796 0.50655,-0.47841 0.6754,-0.92868 0.19699,-0.45026 0.22513,-0.75982 0.0281,-0.36584 -0.11257,-0.6754 -0.39398,-0.11256 -0.84425,0 -0.39398,0.11257 -0.87239,0.45027 -0.4784,0.3377 -0.98495,1.06938 -0.39398,0.56283 -0.56283,1.0131 -0.16885,0.42212 -0.22514,0.70354 -0.0563,0.3377 0.0281,0.56283 z" />
    <path
       id="path4896"
       style="font-style:normal;font-variant:normal;font-weight:normal;font-stretch:normal;font-size:63.5px;line-height:1.25;font-family:olivier;-inkscape-font-specification:olivier;letter-spacing:0px;word-spacing:0px;fill:#ffffff;fill-opacity:1;stroke:none;stroke-width:0.1172567"
       d="m -450.70568,163.94278 q 0.16885,-0.28142 0.47841,-0.50655 0.3377,-0.25327 0.6754,-0.42212 0.36584,-0.19699 0.70354,-0.28142 0.36584,-0.11256 0.59097,-0.11256 0.11257,0 0.16885,0.22513 0.0844,0.22513 0.14071,0.59097 0.0844,0.36584 0.11257,0.84425 0.0281,0.45027 0.0563,0.92867 0.0563,1.12567 0.0281,2.56089 0.36584,-0.73168 0.78797,-1.43522 0.36584,-0.59098 0.84424,-1.21009 0.47841,-0.64726 0.98496,-1.09752 0.47841,-0.42213 1.04124,-0.64726 0.59097,-0.22513 1.18195,-0.16885 0.59097,0.0281 1.12566,0.42212 0.56283,0.39399 0.98496,1.18195 0.28141,0.53469 0.42212,1.3508 0.14071,0.78796 0.19699,1.68849 0.0844,0.87239 0.14071,1.77293 0.0844,0.90053 0.25328,1.66035 0.19699,0.75982 0.50654,1.29451 0.3377,0.5347 0.95682,0.6754 0.50655,0.14071 0.98496,0.0281 0.50654,-0.1407 0.92867,-0.33769 0.45026,-0.22514 0.75982,-0.36585 0.3377,-0.16884 0.47841,-0.0844 0.11257,0.11257 -0.14071,0.61912 -0.22513,0.50654 -0.78796,1.04123 -0.53469,0.5347 -1.37894,0.90054 -0.81611,0.39398 -1.88549,0.25327 -2.11062,-0.28142 -3.03929,-2.1669 -0.92868,-1.91363 -1.06939,-4.98107 -0.0563,-1.09752 -0.28141,-1.63221 -0.19699,-0.53469 -0.53469,-0.56283 -0.3377,-0.0281 -0.78797,0.39398 -0.42212,0.39398 -0.92867,1.15381 -0.59097,0.87238 -0.87239,1.74477 -0.28142,0.87239 -0.39398,1.63222 -0.0844,0.75982 -0.11257,1.3508 -0.0281,0.59097 -0.14071,0.87239 -0.1407,0.30955 -0.59097,0.42212 -0.45027,0.11257 -0.98496,0.11257 -0.50655,0 -1.01309,-0.11257 -0.47841,-0.11257 -0.6754,-0.28142 -0.11257,-0.11256 -0.19699,-0.78796 -0.0563,-0.70354 -0.0844,-1.66036 -0.0281,-0.98495 -0.0281,-2.08248 0.0281,-1.12566 0.0563,-2.11062 0.0563,-1.01309 0.14071,-1.74478 0.0844,-0.73168 0.19699,-0.92867 z" />
    <path
       id="path4898"
       style="font-style:normal;font-variant:normal;font-weight:normal;font-stretch:normal;font-size:63.5px;line-height:1.25;font-family:olivier;-inkscape-font-specification:olivier;letter-spacing:0px;word-spacing:0px;fill:#ffffff;fill-opacity:1;stroke:none;stroke-width:0.1172567"
       d="m -436.62806,153.95251 q 0.0844,-0.50655 0.59098,-0.56283 0.50654,-0.0563 1.06938,0.22513 0.56283,0.28142 1.04124,0.81611 0.4784,0.50655 0.50655,1.12566 0.0281,0.64726 0.0563,1.32266 0.0281,0.6754 0.0563,1.21009 0.0281,0.64725 0.0563,1.21009 0.95681,-0.0844 1.68849,-0.0563 0.64726,0.0281 1.15381,0.16885 0.50655,0.14071 0.50655,0.50655 0,0.39398 -0.50655,0.6754 -0.47841,0.28142 -1.09753,0.47841 -0.73168,0.22513 -1.63221,0.39398 0.0563,1.88549 0.11257,3.65841 0.0281,1.54779 0,3.23628 0,1.6885 -0.11257,2.95487 -0.14071,1.26637 -0.45026,1.85735 -0.28142,0.59097 -0.64726,0.75982 -0.36584,0.16885 -0.75982,0.0844 -0.39399,-0.11257 -0.73169,-0.25328 -0.16885,-0.0563 -0.30955,-0.59097 -0.14071,-0.53469 -0.22514,-1.37894 -0.0844,-0.84425 -0.14071,-1.88549 -0.0563,-1.06938 -0.0844,-2.1669 -0.0844,-2.58903 -0.0844,-5.79717 -0.75983,0.16885 -1.40709,0.16885 -0.56283,0 -1.04123,-0.16885 -0.47841,-0.19699 -0.59098,-0.70354 -0.0844,-0.39399 0.36584,-0.70354 0.42213,-0.30956 0.98496,-0.53469 0.64726,-0.25328 1.51965,-0.45027 v -0.45027 q 0,-0.19699 0,-0.39398 0.0281,-0.22513 0.0281,-0.36584 0,-1.12566 -0.0281,-1.8292 -0.0282,-0.70354 -0.0282,-1.15381 0,-0.47841 0.0282,-0.75982 0.0281,-0.30956 0.11256,-0.64726 z" />
    <path
       id="path4900"
       style="font-style:normal;font-variant:normal;font-weight:normal;font-stretch:normal;font-size:63.5px;line-height:1.25;font-family:olivier;-inkscape-font-specification:olivier;letter-spacing:0px;word-spacing:0px;fill:#ffffff;fill-opacity:1;stroke:none;stroke-width:0.1172567"
       d="m -428.85284,163.46437 q 0.39398,-0.75982 1.04124,-1.32265 0.64725,-0.56283 1.40708,-0.90053 0.78796,-0.36584 1.63221,-0.53469 0.87239,-0.16885 1.6885,-0.16885 0.84425,0.0563 1.43522,0.56283 0.61912,0.47841 0.87239,1.26637 0.25327,0.75982 0.0844,1.71664 -0.14071,0.95681 -0.81611,1.94177 -0.73168,1.06938 -1.57593,1.60407 -0.81611,0.53469 -1.51965,0.75982 -0.81611,0.28142 -1.60407,0.25328 -0.0281,1.06938 0.22513,1.8292 0.11257,0.3377 0.25328,0.64726 0.16885,0.28142 0.42212,0.50655 0.25328,0.22513 0.61912,0.3377 0.36584,0.0844 0.84424,0 1.0131,-0.16885 1.63222,-0.73168 0.64726,-0.59098 1.06938,-1.18195 0.42212,-0.59097 0.6754,-1.0131 0.28141,-0.45026 0.53469,-0.3377 0.30956,0.14071 0.30956,0.70354 0.0281,0.56284 -0.25328,1.32266 -0.28141,0.75982 -0.84425,1.57593 -0.53469,0.78796 -1.37894,1.3508 -0.84424,0.56283 -1.94177,0.75982 -1.09752,0.22513 -2.44832,-0.19699 -1.09752,-0.3377 -1.8292,-1.06938 -0.73168,-0.73168 -1.15381,-1.6885 -0.42212,-0.95681 -0.56283,-2.05434 -0.14071,-1.09752 -0.0563,-2.1669 0.11256,-1.09752 0.42212,-2.08248 0.3377,-0.98496 0.81611,-1.6885 z m 2.61717,3.06744 q 0.36584,-0.0563 0.8161,-0.22513 0.39399,-0.14071 0.84425,-0.42213 0.47841,-0.28141 1.0131,-0.78796 0.50655,-0.47841 0.6754,-0.92868 0.19699,-0.45026 0.22513,-0.75982 0.0281,-0.36584 -0.11256,-0.6754 -0.39399,-0.11256 -0.84425,0 -0.39398,0.11257 -0.87239,0.45027 -0.47841,0.3377 -0.98496,1.06938 -0.39398,0.56283 -0.56283,1.0131 -0.16885,0.42212 -0.22513,0.70354 -0.0563,0.3377 0.0281,0.56283 z" />
  </g>
</svg>
